<svg xmlns="http://www.w3.org/2000/svg" viewBox="0 0 1200 630" width="1200" height="630" role="img" aria-labelledby="title desc"><title id="title">WMIE Group Social Preview</title><desc id="desc">WMIE logo and tagline for social sharing previews.</desc><defs><linearGradient id="sky" x1="0" y1="0" x2="0" y2="1"><stop offset="0" stop-color="#162f4a"/><stop offset="0.42" stop-color="#8f4d3d"/><stop offset="0.72" stop-color="#d98238"/><stop offset="1" stop-color="#071521"/></linearGradient><radialGradient id="sun" cx="72%" cy="34%" r="27%"><stop offset="0" stop-color="#ffe7a3" stop-opacity="1"/><stop offset="0.22" stop-color="#ffb45f" stop-opacity="0.9"/><stop offset="0.55" stop-color="#d98238" stop-opacity="0.25"/><stop offset="1" stop-color="#d98238" stop-opacity="0"/></radialGradient><filter id="shadow" x="-20%" y="-20%" width="140%" height="140%"><feDropShadow dx="0" dy="20" stdDeviation="24" flood-color="#000" flood-opacity="0.35"/></filter></defs><rect width="1200" height="630" fill="url(#sky)"/><rect width="1200" height="630" fill="url(#sun)"/><path d="M0 472 C145 438 260 454 375 430 C520 400 655 440 800 410 C945 378 1075 410 1200 383 L1200 630 L0 630 Z" fill="#081827" opacity="0.9"/><path d="M0 500 C170 460 320 488 485 450 C675 408 830 458 1005 416 C1095 394 1155 392 1200 398 L1200 630 L0 630 Z" fill="#06111d" opacity="0.86"/><g stroke="#f7efe2" stroke-opacity="0.22" stroke-width="3"><path d="M95 450 L150 260 L205 450"/><path d="M158 450 L212 285 L266 450"/><path d="M142 296 H222"/><path d="M114 382 H250"/><path d="M155 320 L214 402"/><path d="M212 320 L153 402"/></g><g filter="url(#shadow)"><rect x="86" y="92" width="1028" height="420" rx="36" fill="#f8efe2" opacity="0.96"/><g transform="translate(135 176)"><path d="M70 170 C115 105 190 75 270 92 C325 104 375 138 410 188" fill="none" stroke="#0d5fca" stroke-width="9" stroke-linecap="round"/><path d="M55 185 C145 155 255 150 398 185 L362 250 C280 218 185 216 90 250 Z" fill="#061b3a"/><path d="M85 220 C175 190 245 195 342 224" fill="none" stroke="#fff" stroke-width="8" stroke-linecap="round"/><path d="M125 196 L183 337 L255 220 L329 337 L390 196 L325 196 L285 273 L236 196 L184 273 L146 196 Z" fill="#071a2f"/><path d="M270 112 v100" stroke="#071a2f" stroke-width="6" stroke-linecap="round"/><path d="M253 130 h34 M258 118 h24" stroke="#071a2f" stroke-width="5" stroke-linecap="round"/><path d="M213 298 C225 338 258 354 312 354 H400" fill="none" stroke="#0d5fca" stroke-width="14" stroke-linecap="round"/><circle cx="417" cy="354" r="13" fill="#fff" stroke="#0d5fca" stroke-width="9"/><path d="M198 295 C202 365 260 395 366 395" fill="none" stroke="#ff7900" stroke-width="14" stroke-linecap="round"/><circle cx="383" cy="395" r="13" fill="#fff" stroke="#ff7900" stroke-width="9"/><path d="M180 300 C172 385 238 435 330 435" fill="none" stroke="#2d8f2a" stroke-width="14" stroke-linecap="round"/><circle cx="347" cy="435" r="13" fill="#fff" stroke="#2d8f2a" stroke-width="9"/></g><g transform="translate(545 204)" fill="#071a2f" font-family="Arial, Helvetica, sans-serif"><text x="0" y="72" font-size="132" font-weight="900" letter-spacing="4">WMIE</text><line x1="0" y1="106" x2="560" y2="106" stroke="#0d5fca" stroke-width="5"/><text x="0" y="160" font-size="33" font-weight="800" letter-spacing="4">WHOLESALE MANAGEMENT &amp;</text><text x="0" y="208" font-size="33" font-weight="800" letter-spacing="4">INFRASTRUCTURE EXPANSION</text><line x1="0" y1="278" x2="86" y2="278" stroke="#0d5fca" stroke-width="4"/><text x="120" y="293" font-size="38" font-weight="900" letter-spacing="13" fill="#0d5fca">WE MAKE IT EASY</text><line x1="500" y1="278" x2="580" y2="278" stroke="#2d8f2a" stroke-width="4"/></g></g><text x="600" y="578" text-anchor="middle" font-family="Arial, Helvetica, sans-serif" font-size="24" font-weight="800" letter-spacing="6" fill="#f7efe2" opacity="0.88">WMIEGROUP.COM</text></svg>