<svg xmlns="http://www.w3.org/2000/svg" viewBox="0 0 1200 630" width="1200" height="630"><title>WMIE Logo</title><rect width="1200" height="630" fill="#fff"/><g transform="translate(85 140)"><path d="M70 170 C115 105 190 75 270 92 C325 104 375 138 410 188" fill="none" stroke="#0d5fca" stroke-width="9" stroke-linecap="round"/><path d="M55 185 C145 155 255 150 398 185 L362 250 C280 218 185 216 90 250 Z" fill="#061b3a"/><path d="M85 220 C175 190 245 195 342 224" fill="none" stroke="#fff" stroke-width="8" stroke-linecap="round"/><path d="M125 196 L183 337 L255 220 L329 337 L390 196 L325 196 L285 273 L236 196 L184 273 L146 196 Z" fill="#071a2f"/><path d="M270 112 v100" stroke="#071a2f" stroke-width="6" stroke-linecap="round"/><path d="M253 130 h34 M258 118 h24" stroke="#071a2f" stroke-width="5" stroke-linecap="round"/><path d="M213 298 C225 338 258 354 312 354 H400" fill="none" stroke="#0d5fca" stroke-width="14" stroke-linecap="round"/><circle cx="417" cy="354" r="13" fill="#fff" stroke="#0d5fca" stroke-width="9"/><path d="M198 295 C202 365 260 395 366 395" fill="none" stroke="#ff7900" stroke-width="14" stroke-linecap="round"/><circle cx="383" cy="395" r="13" fill="#fff" stroke="#ff7900" stroke-width="9"/><path d="M180 300 C172 385 238 435 330 435" fill="none" stroke="#2d8f2a" stroke-width="14" stroke-linecap="round"/><circle cx="347" cy="435" r="13" fill="#fff" stroke="#2d8f2a" stroke-width="9"/></g><g transform="translate(520 205)" fill="#071a2f" font-family="Arial, Helvetica, sans-serif"><text x="0" y="90" font-size="136" font-weight="900" letter-spacing="4">WMIE</text><line x1="0" y1="126" x2="630" y2="126" stroke="#0d5fca" stroke-width="5"/><text x="0" y="182" font-size="37" font-weight="700" letter-spacing="6">WHOLESALE MANAGEMENT &amp;</text><text x="0" y="236" font-size="37" font-weight="700" letter-spacing="6">INFRASTRUCTURE EXPANSION</text><line x1="0" y1="305" x2="95" y2="305" stroke="#0d5fca" stroke-width="4"/><text x="130" y="321" font-size="42" font-weight="800" letter-spacing="16" fill="#0d5fca">WE MAKE IT EASY</text><line x1="525" y1="305" x2="640" y2="305" stroke="#2d8f2a" stroke-width="4"/></g></svg>