<svg xmlns="http://www.w3.org/2000/svg" viewBox="0 0 512 512" role="img" aria-label="WMIE mark"><rect width="512" height="512" fill="#fff"/><path d="M89 178 C132 105 222 78 307 102 C363 118 408 158 430 215" fill="none" stroke="#0d5fca" stroke-width="10" stroke-linecap="round"/><path d="M88 218 C171 186 271 187 424 218 L389 279 C306 250 200 247 124 280 Z" fill="#061b3a"/><path d="M118 246 C205 210 276 218 364 248" fill="none" stroke="#fff" stroke-width="10" stroke-linecap="round"/><path d="M284 130 v105" stroke="#071a2f" stroke-width="7" stroke-linecap="round"/><path d="M264 151 h40 M270 137 h28" stroke="#071a2f" stroke-width="6" stroke-linecap="round"/><path d="M86 242 L157 419 L240 273 L323 419 L428 242 L353 242 L305 343 L250 242 L197 343 L151 242 Z" fill="#071a2f"/><path d="M240 363 C253 399 282 414 329 414 H410" fill="none" stroke="#0d5fca" stroke-width="16" stroke-linecap="round"/><circle cx="430" cy="414" r="15" fill="#fff" stroke="#0d5fca" stroke-width="10"/><path d="M226 357 C231 425 286 454 382 454" fill="none" stroke="#ff7900" stroke-width="16" stroke-linecap="round"/><circle cx="402" cy="454" r="15" fill="#fff" stroke="#ff7900" stroke-width="10"/><path d="M207 361 C199 442 260 486 344 486" fill="none" stroke="#2d8f2a" stroke-width="16" stroke-linecap="round"/><circle cx="364" cy="486" r="15" fill="#fff" stroke="#2d8f2a" stroke-width="10"/></svg>